<svg width="1237" height="1276" viewBox="0 0 1237 1276" fill="none" xmlns="http://www.w3.org/2000/svg">
<path d="M168.854 638.958L368.961 254.009L867.097 254.01L1056.57 638.96L867.147 1021.03L368.911 1021.03L168.854 638.958Z" fill="#E58D53" stroke="#BDB1A5" stroke-width="50"/>
<path d="M473.188 695.78V717.752H375.922V699.002L421.918 649.686C426.54 644.543 430.186 640.018 432.855 636.112C435.525 632.14 437.445 628.592 438.617 625.467C439.854 622.277 440.473 619.25 440.473 616.385C440.473 612.088 439.757 608.41 438.324 605.35C436.892 602.225 434.776 599.816 431.977 598.124C429.242 596.431 425.857 595.584 421.82 595.584C417.523 595.584 413.812 596.626 410.688 598.709C407.628 600.793 405.284 603.69 403.656 607.401C402.094 611.112 401.312 615.311 401.312 619.999H373.09C373.09 611.535 375.108 603.788 379.145 596.756C383.181 589.66 388.878 584.028 396.234 579.862C403.591 575.63 412.315 573.514 422.406 573.514C432.367 573.514 440.766 575.142 447.602 578.397C454.503 581.587 459.711 586.209 463.227 592.264C466.807 598.254 468.598 605.415 468.598 613.749C468.598 618.436 467.849 623.026 466.352 627.518C464.854 631.945 462.706 636.372 459.906 640.799C457.172 645.161 453.852 649.588 449.945 654.081C446.039 658.573 441.71 663.228 436.957 668.045L412.25 695.78H473.188ZM586.469 634.159V658.768C586.469 669.445 585.329 678.657 583.051 686.405C580.772 694.087 577.484 700.402 573.188 705.35C568.956 710.233 563.91 713.846 558.051 716.19C552.191 718.534 545.681 719.706 538.52 719.706C532.79 719.706 527.452 718.989 522.504 717.557C517.556 716.06 513.096 713.749 509.125 710.624C505.219 707.499 501.833 703.56 498.969 698.807C496.169 693.989 494.021 688.26 492.523 681.62C491.026 674.979 490.277 667.362 490.277 658.768V634.159C490.277 623.482 491.417 614.334 493.695 606.717C496.039 599.035 499.327 592.752 503.559 587.87C507.855 582.987 512.934 579.406 518.793 577.127C524.652 574.784 531.163 573.612 538.324 573.612C544.053 573.612 549.359 574.361 554.242 575.858C559.19 577.29 563.65 579.536 567.621 582.596C571.592 585.656 574.978 589.595 577.777 594.413C580.577 599.165 582.725 604.862 584.223 611.502C585.72 618.078 586.469 625.63 586.469 634.159ZM558.246 662.479V630.35C558.246 625.207 557.953 620.715 557.367 616.874C556.846 613.032 556.033 609.777 554.926 607.108C553.819 604.374 552.452 602.16 550.824 600.467C549.197 598.775 547.341 597.538 545.258 596.756C543.174 595.975 540.863 595.584 538.324 595.584C535.134 595.584 532.302 596.203 529.828 597.44C527.419 598.677 525.368 600.663 523.676 603.397C521.983 606.066 520.681 609.647 519.77 614.139C518.923 618.566 518.5 623.97 518.5 630.35V662.479C518.5 667.622 518.76 672.147 519.281 676.053C519.867 679.959 520.714 683.312 521.82 686.112C522.992 688.846 524.359 691.092 525.922 692.85C527.549 694.543 529.405 695.78 531.488 696.561C533.637 697.342 535.98 697.733 538.52 697.733C541.645 697.733 544.411 697.114 546.82 695.877C549.294 694.575 551.378 692.557 553.07 689.823C554.828 687.023 556.13 683.377 556.977 678.885C557.823 674.393 558.246 668.924 558.246 662.479ZM705.219 664.627V686.698H602.777L601.41 669.608L660.688 575.565H683.051L658.832 616.092L629.34 664.627H705.219ZM689.105 575.565V717.752H660.98V575.565H689.105ZM816.254 678.788C816.254 687.707 814.171 695.226 810.004 701.346C805.837 707.401 800.108 711.991 792.816 715.116C785.59 718.176 777.387 719.706 768.207 719.706C759.027 719.706 750.792 718.176 743.5 715.116C736.208 711.991 730.447 707.401 726.215 701.346C721.983 695.226 719.867 687.707 719.867 678.788C719.867 672.798 721.072 667.394 723.48 662.577C725.889 657.694 729.242 653.527 733.539 650.077C737.901 646.561 743.012 643.892 748.871 642.069C754.73 640.181 761.111 639.237 768.012 639.237C777.257 639.237 785.525 640.864 792.816 644.12C800.108 647.375 805.837 651.965 810.004 657.889C814.171 663.814 816.254 670.78 816.254 678.788ZM787.934 676.932C787.934 672.57 787.087 668.827 785.395 665.702C783.767 662.512 781.456 660.07 778.461 658.377C775.466 656.685 771.983 655.838 768.012 655.838C764.04 655.838 760.557 656.685 757.562 658.377C754.568 660.07 752.224 662.512 750.531 665.702C748.904 668.827 748.09 672.57 748.09 676.932C748.09 681.229 748.904 684.94 750.531 688.065C752.224 691.19 754.568 693.599 757.562 695.292C760.622 696.919 764.171 697.733 768.207 697.733C772.243 697.733 775.727 696.919 778.656 695.292C781.651 693.599 783.93 691.19 785.492 688.065C787.12 684.94 787.934 681.229 787.934 676.932ZM813.227 613.26C813.227 620.487 811.306 626.9 807.465 632.499C803.624 638.032 798.285 642.362 791.449 645.487C784.678 648.612 776.931 650.174 768.207 650.174C759.418 650.174 751.605 648.612 744.77 645.487C737.934 642.362 732.595 638.032 728.754 632.499C724.913 626.9 722.992 620.487 722.992 613.26C722.992 604.667 724.913 597.44 728.754 591.581C732.66 585.656 737.999 581.164 744.77 578.104C751.605 575.044 759.353 573.514 768.012 573.514C776.801 573.514 784.581 575.044 791.352 578.104C798.188 581.164 803.526 585.656 807.367 591.581C811.273 597.44 813.227 604.667 813.227 613.26ZM785.102 614.53C785.102 610.689 784.418 607.368 783.051 604.569C781.684 601.704 779.73 599.491 777.191 597.928C774.717 596.366 771.658 595.584 768.012 595.584C764.496 595.584 761.469 596.333 758.93 597.831C756.456 599.328 754.535 601.509 753.168 604.374C751.866 607.173 751.215 610.558 751.215 614.53C751.215 618.371 751.866 621.756 753.168 624.686C754.535 627.551 756.488 629.797 759.027 631.424C761.566 633.052 764.626 633.866 768.207 633.866C771.788 633.866 774.815 633.052 777.289 631.424C779.828 629.797 781.749 627.551 783.051 624.686C784.418 621.756 785.102 618.371 785.102 614.53Z" fill="white"/>
</svg>
